# xmcd
#
# Track frame offsets: 
#        150
#        17055
#        33940
#
# Disc length: 728 seconds
#
# Revision: 1
# Processed by: cddbd v1.5.2PL0 Copyright (c) Steve Scherf et al.
# Submitted via: ExactAudioCopy v0.99pb5
#
DISCID=1802d603
DTITLE=Babylonia - (If U Want) My Love
DYEAR=2005
DGENRE=Synthpop
TTITLE0=(If U Want) My Love (Single Mix)
TTITLE1=(If U Want) My Love (Syrian Remix)
TTITLE2=Something Epic (Celluloide Remix)
EXTD=YEAR: 2001 ID3G:   7\n
EXTT0=
EXTT1=
EXTT2=
PLAYORDER=
